<?xml version="1.0" encoding="UTF-8"?>
<svg id="Lager_1" data-name="Lager 1" xmlns="http://www.w3.org/2000/svg" viewBox="0 0 688.77 632.75">
  <defs>
    <style>
      .cls-1 {
        fill: #e8452a;
      }
    </style>
  </defs>
  <path class="cls-1" d="M488.68,117.69c-1.63-.21-2.28-.07-3.54.96-1.49,1.22-7.17,12.54-8.66,15.34-8.29,15.54-15.58,31.7-23.61,47.39-38.82,75.89-77.63,152.03-115.39,228.61-13.77,27.92-26.13,56.87-40.61,84.39-1.03,1.97-4.59,8.02-6.17,8.83-1.71.87-5.51.56-6.83-.72s-4.73-8.6-5.71-10.79c-6.52-14.52-11.83-30.26-17.98-45.02-21.75-52.27-43.72-104.54-65.02-156.98-18.52-45.58-35.94-91.67-55.02-136.98-6.19-8.35-13.36,8-15.25,12.69-2.86,7.08-5.44,15.86-7.75,23.25-30.46,97.66-43.09,216.63-12,315.05,15.54,49.2,46.56,98.08,94.53,120.47,4.08,3.61.32,8.52-4.46,8.54l-154.59-.09c-4.96-2.01-7.85-5.73-9.73-10.67-4.49-11.81-5.83-26.32-7.25-38.75C7.07,438.54,69.38,293.13,108.21,155.71c7.43-26.3,13.55-40.99,1.67-67.73C90.67,44.71,53.02,18.59,7.14,9.73c-2.61-.5-6.5-1.11-6.99-3.02C-.84,2.8,3.14,1.11,6.21.72c8.5-1.08,22.99-.33,32.01-.07,35.56,1.04,71,5.3,104.47,18.53,80.87,31.95,115.8,93.47,146.49,170.51,19.67,49.38,36.88,99.83,57,149,4.75,4.28,7.27-.22,9.69-4.31L526.27,4.52c2.07-2.97,3.65-3.27,6.48-3.52,15.12-1.37,95.39-.67,116.08-1,9.13.82,2.2,8.46-2.56,14.53-17.99,22.96-31.1,55.09-33.62,83.63-3.31,37.6.67,75.46,3,113.06,5.93,95.67,10.83,191.51,18,287,2.81,37.45,4.8,93.78,39.08,117.92,3.43,2.42,14.94,7.22,15.84,10.17,1.16,3.8-3.02,6.26-6.35,6.42l-210.08.02c-9.97-2.1-3.03-8.6,2.88-12.22,41.75-25.64,37.11-84.91,35.62-127.3-2.51-71.49-8.72-142.7-13-214-3.06-51.02-8.83-158.74-8.96-161.54Z"/>
</svg>